<?xml version="1.0" encoding="utf-8"?>
<!-- Generator: Adobe Illustrator 25.0.0, SVG Export Plug-In . SVG Version: 6.00 Build 0)  -->
<svg version="1.1" id="Layer_1" xmlns="http://www.w3.org/2000/svg" xmlns:xlink="http://www.w3.org/1999/xlink" x="0px" y="0px"
	 viewBox="0 0 1000 1000" style="enable-background:new 0 0 1000 1000;" xml:space="preserve">
<style type="text/css">
	.st0{fill:#FFFFFF;}
</style>
<g>
	<g>
		<g>
			<path d="M293.36,608.96c18.05,0,31.66,4.12,40.53,12.4c7.93,7.45,12.78,17.71,12.78,31.76c0,17.84-6.87,30.88-17.7,39.36
				c-10.69,8.34-23.13,12.05-37.82,12.05h-39.34v-2.15c10.95-1.92,12.12-2.9,12.12-15.47v-60.29c0-12.67-1.27-13.81-12.12-15.52
				v-2.15H293.36z M279.43,684.23c0.1,12.52,4.69,16.28,17.23,16.28c21.8,0,32.36-16.25,32.36-44.84c0-15.82-4.93-28.98-14.55-36.19
				c-6.19-5.15-13.44-7.09-23.05-7.09c-5.37,0-8.73,0.87-10.31,1.95c-1.68,1.12-1.98,3.16-1.98,8.42L279.43,684.23z"/>
			<path d="M410.8,690.74c-8.72,11.93-19.22,15.55-24.1,15.55c-18.02,0-28.59-14.55-28.59-30.58c0-10.22,3.8-18.89,9.87-25.31
				c6.31-6.65,13.81-9.57,20.72-9.57c13.45,0,22.01,10.25,22.1,20.99c0,2.3-0.15,3.34-0.74,3.48c-4.04,0.93-22.19,2.1-38.07,2.59
				c-0.06,19.99,11.16,28.21,21.41,28.21c5.14,0,10.59-1.58,16.12-7.02L410.8,690.74z M384.59,644.7c-6.06,0-11.09,5.73-12.24,19.08
				c6.91,0.1,16.45,0.05,21.3-0.44c1.69-0.15,2.65-0.5,2.65-2.16C396.3,652.92,392.04,644.7,384.59,644.7z"/>
			<path d="M448.42,704.53v-2.15c6.66-1.42,6.88-2.35,4.39-6.69l-9.56-16.64c-3.23,5.29-6.15,9.89-8.89,15.08
				c-3.01,5.56-2.21,6.64,5.87,8.25v2.15h-24.7v-2.15c8.12-1.14,9.92-2.94,14.72-9.76c3.94-5.57,7.32-10.81,11.14-16.61
				l-12.34-21.03c-4.62-7.81-5.79-9.36-12.38-10.39v-2h29.75v2c-6.41,1.52-6.67,2.73-4.7,6.13l8.35,14.64
				c3.52-5.28,6.18-9.81,8.54-14c2.3-3.97,2.21-5.2-5.92-6.77l0.05-2h23.91v2c-8.69,1.57-10.01,2.84-14.66,9.31
				c-1.96,2.75-5.7,8.06-9.97,14.39l15.25,24.72c4.01,6.62,5.23,8.18,12.09,9.31v2.2H448.42z"/>
			<path d="M532.06,606.9c25.56,0,47.32,20.23,47.32,48.8c0,30.78-21.51,51.02-48.02,51.02c-27.6,0-48.04-21.74-48.04-48.99
				C483.32,632.08,501.55,606.9,532.06,606.9z M529.17,610.43c-15.33,0-27.76,14.72-27.76,43.62c0,27.95,12.51,49.11,32.7,49.11
				c15.63,0,27.17-14.9,27.17-43.37C561.29,628.7,548.34,610.43,529.17,610.43z"/>
			<path d="M622.69,704.53h-32.67v-2.15c7.86-1.32,8.35-1.96,8.35-12.69v-30.7c0-8.26-0.76-9.14-6.92-10.91v-1.76
				c7.28-1.04,14.78-2.85,21.6-5.89c-0.15,2.46-0.34,10.25-0.44,15.59c3.62-6.56,10.17-15.19,17.22-15.19
				c4.65,0,7.97,2.94,7.97,6.88c0,3.51-3.05,8.26-6.06,9.53c-1.76,0.84-2.65,0.55-3.57-0.38c-2.49-2.4-4.07-4.15-6.71-4.15
				c-2.46,0-5.87,1.9-8.84,7.81v29.16c0,10.63,1.02,11.08,10.08,12.69V704.53z"/>
			<path d="M710.99,701.09c-2.95,0.44-14.37,2.3-23.77,5.77c0.15-2.09,0.29-6.38,0.29-9.23c-3.15,2.02-7.28,4.58-10.78,6.26
				c-3.92,1.81-5.94,2.4-7.84,2.4c-11.5,0-26.1-10.5-26.1-31.01c0-19.02,16.33-34.45,36.96-34.45c1.93,0,5.48,0.15,7.76,0.75V618.2
				c0-9.27-0.74-10.41-10.36-12.25v-1.9c8.52-0.68,19.85-2.74,25.09-4.8c-0.29,3.76-0.49,11.78-0.49,18.28v69.69
				c0,8.59,1.03,9.98,5.89,11.06l3.35,0.74V701.09z M687.51,652.3c-2.81-5.19-8.95-7.44-13.99-7.44c-6.23,0-14.69,4.85-14.6,25.24
				c0.1,18.75,9.73,28.07,18.58,28.07c3.44,0,6.95-1.2,10.01-3.53V652.3z"/>
			<path d="M716.36,704.53v-2.15c8.25-1.37,8.65-2.11,8.65-13.17v-29.65c0-9.04-0.49-9.68-7.14-11.53v-1.85
				c7.7-1.08,15.12-2.84,21.67-5.45c-0.15,3.04-0.29,11.52-0.29,17.56v30.87c0,10.88,0.79,11.66,8.94,13.22v2.15H716.36z
				 M731.14,625.92c-4.23,0-7.89-3.56-7.89-8.18c0-4.87,3.66-8.23,8.04-8.23c4.72,0,8.18,3.36,8.18,8.23
				C739.47,622.36,736,625.92,731.14,625.92z"/>
		</g>
		<g>
			<g>
				<g>
					<path d="M402.83,499.99l94.32-206.85l0.33,0.48l127.68,186.48l-0.57,0.05L402.83,499.99z M497.27,294.49l-93.34,204.72
						l220.03-19.69L497.27,294.49z"/>
				</g>
			</g>
			<g>
				<g>
					<path d="M621.48,492.72H398.3l111.59-197.66L621.48,492.72z M399.46,492.03h220.87L509.89,296.42L399.46,492.03z"/>
				</g>
			</g>
			<g>
				<g>
					<path d="M616.74,504.96l-0.57-0.05l-221.75-19.84l128.01-186.96L616.74,504.96z M395.62,484.49l220.03,19.69L522.3,299.46
						L395.62,484.49z"/>
				</g>
			</g>
			<g>
				<g>
					<path d="M610.97,516.73L391.18,477.1l0.37-0.45l143.08-174.39l0.2,0.55L610.97,516.73z M392.44,476.64l217.51,39.22
						L534.41,303.6L392.44,476.64z"/>
				</g>
			</g>
			<g>
				<g>
					<path d="M604.22,527.95l-215.57-59.07l157.81-161.39L604.22,527.95z M389.93,468.53l213.34,58.46l-57.17-218.18L389.93,468.53z
						"/>
				</g>
			</g>
			<g>
				<g>
					<path d="M596.54,538.52l-0.54-0.2l-209.17-77.86l170.96-146.71L596.54,538.52z M388.14,460.23l207.55,77.25l-38.35-222.45
						L388.14,460.23z"/>
				</g>
			</g>
			<g>
				<g>
					<path d="M587.99,548.37l-202.27-96.46L568.54,321l0.05,0.59L587.99,548.37z M387.05,451.8l200.18,95.46l-19.25-225.02
						L387.05,451.8z"/>
				</g>
			</g>
			<g>
				<g>
					<path d="M578.63,557.42L385.36,443.3l193.27-114.12V557.42z M386.69,443.3l191.28,112.94V330.36L386.69,443.3z"/>
				</g>
			</g>
			<g>
				<g>
					<path d="M568.54,565.6L385.72,434.69l202.27-96.46l-0.05,0.59L568.54,565.6z M387.05,434.81l180.93,129.56l19.25-225.02
						L387.05,434.81z"/>
				</g>
			</g>
			<g>
				<g>
					<path d="M557.79,572.85l-0.44-0.38L386.83,426.14l209.72-78.06L557.79,572.85z M388.14,426.38l169.2,145.19l38.35-222.45
						L388.14,426.38z"/>
				</g>
			</g>
			<g>
				<g>
					<path d="M546.46,579.11L388.65,417.72l215.57-59.07L546.46,579.11z M389.93,418.07l156.18,159.72l57.17-218.18L389.93,418.07z"
						/>
				</g>
			</g>
			<g>
				<g>
					<path d="M534.64,584.34L391.18,409.5l219.78-39.63L534.64,584.34z M392.44,409.96L534.41,583l75.54-212.26L392.44,409.96z"/>
				</g>
			</g>
			<g>
				<g>
					<path d="M522.42,588.49l-0.33-0.48L394.41,401.53l222.33-19.89l-0.24,0.53L522.42,588.49z M395.62,402.11L522.3,587.14
						l93.34-204.72L395.62,402.11z"/>
				</g>
			</g>
			<g>
				<g>
					<path d="M509.89,591.54L398.3,393.89h223.17L509.89,591.54z M399.46,394.57l110.43,195.62l110.43-195.62H399.46z"/>
				</g>
			</g>
			<g>
				<g>
					<path d="M497.15,593.47l-94.32-206.85l222.33,19.89L497.15,593.47z M403.92,387.4l93.34,204.72l126.69-185.03L403.92,387.4z"/>
				</g>
			</g>
			<g>
				<g>
					<path d="M484.3,594.25l-0.2-0.55l-76.13-213.92l219.78,39.63L484.3,594.25z M408.99,380.65l75.54,212.26L626.5,419.87
						L408.99,380.65z"/>
				</g>
			</g>
			<g>
				<g>
					<path d="M471.42,593.88l-57.76-220.46l215.57,59.07L471.42,593.88z M414.6,374.38l57.17,218.18l156.18-159.72L414.6,374.38z"/>
				</g>
			</g>
			<g>
				<g>
					<path d="M458.63,592.36l-38.75-224.77l209.72,78.06L458.63,592.36z M420.73,368.64l38.35,222.45l169.2-145.19L420.73,368.64z"
						/>
				</g>
			</g>
			<g>
				<g>
					<path d="M446.02,589.71l-0.05-0.59l-19.4-226.78l202.27,96.46L446.02,589.71z M427.33,363.46l19.25,225.02l180.93-129.56
						L427.33,363.46z"/>
				</g>
			</g>
			<g>
				<g>
					<path d="M433.68,585.95V357.71l193.28,114.12L433.68,585.95z M434.34,358.89v225.88l191.28-112.94L434.34,358.89z"/>
				</g>
			</g>
			<g>
				<g>
					<path d="M421.7,581.1l0.05-0.59l19.4-226.78l182.81,130.91L421.7,581.1z M441.72,354.96l-19.25,225.02l200.18-95.46
						L441.72,354.96z"/>
				</g>
			</g>
			<g>
				<g>
					<path d="M410.19,575.2l38.75-224.77l0.44,0.38L619.9,497.14l-0.54,0.2L410.19,575.2z M449.4,351.71l-38.35,222.45l207.55-77.25
						L449.4,351.71z"/>
				</g>
			</g>
			<g>
				<g>
					<path d="M399.22,568.3l57.76-220.46l157.81,161.39L399.22,568.3z M457.33,349.15l-57.17,218.18l213.34-58.46L457.33,349.15z"/>
				</g>
			</g>
			<g>
				<g>
					<path d="M388.88,560.44l0.2-0.55l76.13-213.92l143.45,174.84L388.88,560.44z M465.44,347.31L389.9,559.57l217.51-39.22
						L465.44,347.31z"/>
				</g>
			</g>
			<g>
				<g>
					<path d="M379.25,551.7l94.32-206.85l0.33,0.48l127.68,186.48l-0.57,0.05L379.25,551.7z M473.69,346.2l-93.34,204.72
						l220.03-19.69L473.69,346.2z"/>
				</g>
			</g>
			<g>
				<g>
					<path d="M593.58,542.13H370.41l111.59-197.66L593.58,542.13z M371.56,541.45h220.87L481.99,345.83L371.56,541.45z"/>
				</g>
			</g>
		</g>
	</g>
</g>
</svg>
